<svg xmlns="http://www.w3.org/2000/svg" viewBox="0 0 1500 1080.617"><defs><clipPath id="a"><path fill="none" stroke-width="0" d="m718.791 640.852 1.808 421.854H552.804l-.139-330.304 166.126-91.55z"/></clipPath><clipPath id="b"><path fill="none" stroke-width="0" d="m718.791 640.852 1.808 421.854H552.804l-.139-330.304 166.126-91.55z"/></clipPath><clipPath id="c"><path fill="none" stroke-width="0" d="m1467.888 358.966-626.66 344.357-95.863 1.252-.417-46.749 683.426-373.018 39.514 74.158z"/></clipPath><clipPath id="d"><path fill="none" stroke-width="0" d="m1467.888 358.966-626.66 344.357-95.863 1.252-.417-46.749 683.426-373.018 39.514 74.158z"/></clipPath><clipPath id="e"><path transform="rotate(-28.744 952.098 593.86)" fill="none" stroke-width="0" d="M904.671 579.464h94.891v28.801h-94.891z"/></clipPath><clipPath id="f"><path fill="none" stroke-width="0" d="m1467.888 358.966-626.66 344.357-95.863 1.252-.417-46.749 683.426-373.018 39.514 74.158z"/></clipPath><clipPath id="g"><path fill="none" stroke-width="0" d="m1467.888 358.966-626.66 344.357-95.863 1.252-.417-46.749 683.426-373.018 39.514 74.158z"/></clipPath><clipPath id="h"><path transform="rotate(-28.744 619.824 776.103)" fill="none" stroke-width="0" d="M572.392 761.712h94.891v28.801h-94.891z"/></clipPath><clipPath id="i"><path fill="none" stroke-width="0" d="m1467.888 358.966-626.66 344.357-95.863 1.252-.417-46.749 683.426-373.018 39.514 74.158z"/></clipPath><clipPath id="j"><path transform="rotate(-28.744 703.05 730.487)" fill="none" stroke-width="0" d="M655.618 716.095h94.891v28.801h-94.891z"/></clipPath><clipPath id="k"><path fill="none" stroke-width="0" d="m1467.888 358.966-626.66 344.357-95.863 1.252-.417-46.749 683.426-373.018 39.514 74.158z"/></clipPath><clipPath id="l"><path transform="rotate(-28.744 786.396 684.804)" fill="none" stroke-width="0" d="M738.966 670.411h94.891v28.801h-94.891z"/></clipPath><clipPath id="m"><path fill="none" stroke-width="0" d="m1467.888 358.966-626.66 344.357-95.863 1.252-.417-46.749 683.426-373.018 39.514 74.158z"/></clipPath><clipPath id="n"><path transform="rotate(-28.744 869.622 639.187)" fill="none" stroke-width="0" d="M822.193 624.794h94.891v28.801h-94.891z"/></clipPath><clipPath id="o"><path fill="none" stroke-width="0" d="m1467.888 358.966-626.66 344.357-95.863 1.252-.417-46.749 683.426-373.018 39.514 74.158z"/></clipPath><clipPath id="p"><path transform="rotate(-28.744 1035.446 548.177)" fill="none" stroke-width="0" d="M988.019 533.78h94.891v28.801h-94.891z"/></clipPath><clipPath id="q"><path fill="none" stroke-width="0" d="m1467.888 358.966-626.66 344.357-95.863 1.252-.417-46.749 683.426-373.018 39.514 74.158z"/></clipPath><clipPath id="r"><path transform="rotate(-28.744 1118.67 502.56)" fill="none" stroke-width="0" d="M1071.246 488.163h94.891v28.801h-94.891z"/></clipPath><clipPath id="s"><path fill="none" stroke-width="0" d="m1467.888 358.966-626.66 344.357-95.863 1.252-.417-46.749 683.426-373.018 39.514 74.158z"/></clipPath><clipPath id="t"><path transform="rotate(-28.744 1284.933 411.323)" fill="none" stroke-width="0" d="M1237.51 396.924h94.891v28.801h-94.891z"/></clipPath><clipPath id="u"><path fill="none" stroke-width="0" d="m1467.888 358.966-626.66 344.357-95.863 1.252-.417-46.749 683.426-373.018 39.514 74.158z"/></clipPath><clipPath id="v"><path transform="rotate(-28.744 1201.896 456.944)" fill="none" stroke-width="0" d="M1154.472 442.546h94.891v28.801h-94.891z"/></clipPath><clipPath id="w"><path fill="none" stroke-width="0" d="m1467.888 358.966-626.66 344.357-95.863 1.252-.417-46.749 683.426-373.018 39.514 74.158z"/></clipPath><clipPath id="x"><path transform="rotate(-28.744 1451.095 320.451)" fill="none" stroke-width="0" d="M1403.673 306.051h94.891v28.801h-94.891z"/></clipPath><clipPath id="y"><path fill="none" stroke-width="0" d="m1467.888 358.966-626.66 344.357-95.863 1.252-.417-46.749 683.426-373.018 39.514 74.158z"/></clipPath><clipPath id="z"><path transform="rotate(-28.744 1367.99 365.951)" fill="none" stroke-width="0" d="M1320.568 351.55h94.891v28.801h-94.891z"/></clipPath><clipPath id="A"><path fill="none" stroke-width="0" d="M1415.434 260.459 552.665 732.541l-.279-186.996 784.02-434.237 79.028 149.151z"/></clipPath><clipPath id="B"><path fill="none" stroke-width="0" d="M1415.434 260.459 552.665 732.541l-.279-186.996 784.02-434.237 79.028 149.151z"/></clipPath><clipPath id="C"><path fill="none" stroke-width="0" d="M745.365 703.323h95.168v359.522h-95.168z"/></clipPath><clipPath id="D"><path fill="none" stroke-width="0" d="M776.843 1015.45h32.418v104.629h-32.418z"/></clipPath><clipPath id="E"><path fill="none" stroke-width="0" d="M776.753 910.771h32.418V1015.4h-32.418z"/></clipPath><clipPath id="F"><path fill="none" stroke-width="0" d="M776.817 701.728h32.418v104.629h-32.418z"/></clipPath><clipPath id="G"><path fill="none" stroke-width="0" d="M776.803 806.093h32.418v104.629h-32.418z"/></clipPath></defs><g clip-path="url(#a)"><path fill="#e6e7e8" stroke="#808285" stroke-miterlimit="10" stroke-width="1.113" d="m729.782 586.172-.278 897.553-185.883-4.591.278-897.693 185.883 4.731z"/></g><g clip-path="url(#b)" fill="none" stroke="#bcbec0" stroke-miterlimit="10" stroke-width="1.113"><path d="M716.843 572.12c0 18.783-21.705 25.183-37.288 25.183-29.775 0-55.375-25.183-81.254-25.044-16.835 0-37.288 5.148-37.288 25.183"/><path d="M716.843 622.486c0-21.427-21.705-25.183-37.288-25.183-29.775 0-55.236 25.183-81.254 25.322-16.835 0-37.288-4.035-37.288-25.183"/><path d="M716.843 622.486c0 18.783-21.705 25.183-37.288 25.183-29.775 0-55.375-25.183-81.254-25.044-16.835 0-37.288 5.148-37.288 25.183"/><path d="M716.982 672.852c0-21.427-21.705-25.183-37.288-25.183-29.775 0-55.236 25.183-81.254 25.322-16.835 0-37.288-4.035-37.288-25.183M716.982 674.244c0 18.783-21.705 25.183-37.288 25.183-29.775 0-55.375-25.183-81.254-25.044-16.835 0-37.288 5.148-37.288 25.183"/><path d="M716.982 724.61c0-21.427-21.705-25.183-37.288-25.183-29.775 0-55.236 25.183-81.254 25.322-16.835 0-37.288-4.035-37.288-25.183"/><path d="M716.982 724.61c0 18.783-21.705 25.183-37.288 25.183-29.775 0-55.375-25.183-81.254-25.044-16.835 0-37.288 5.148-37.288 25.183"/><path d="M717.121 774.977c0-21.427-21.705-25.183-37.288-25.183-29.775 0-55.236 25.183-81.254 25.322-16.835 0-37.288-4.035-37.288-25.183M717.121 776.368c0 18.783-21.705 25.183-37.288 25.183-29.775 0-55.375-25.183-81.254-25.044-16.835 0-37.288 5.148-37.288 25.183"/><path d="M717.121 826.735c0-21.427-21.705-25.183-37.288-25.183-29.775 0-55.236 25.183-81.254 25.322-16.835 0-37.288-4.035-37.288-25.183"/><path d="M717.121 826.735c0 18.783-21.705 25.183-37.288 25.183-29.775 0-55.375-25.183-81.254-25.044-16.835 0-37.288 5.148-37.288 25.183"/><path d="M717.121 877.101c0-21.427-21.705-25.183-37.288-25.183-29.775 0-55.236 25.183-81.254 25.322-16.835 0-37.288-4.035-37.288-25.183M717.121 878.492c0 18.783-21.705 25.183-37.288 25.183-29.775 0-55.375-25.183-81.254-25.044-16.835 0-37.288 5.148-37.288 25.183"/><path d="M717.26 928.859c0-21.427-21.705-25.183-37.288-25.183-29.775 0-55.236 25.183-81.254 25.322-16.835 0-37.288-4.035-37.288-25.183"/><path d="M717.26 928.859c0 18.783-21.705 25.183-37.288 25.183-29.775 0-55.375-25.183-81.254-25.044-16.835 0-37.288 5.148-37.288 25.183"/><path d="M717.26 979.225c0-21.427-21.705-25.183-37.288-25.183-29.775 0-55.236 25.183-81.254 25.322-16.835 0-37.288-4.035-37.288-25.183M717.26 980.478c0 18.783-21.705 25.183-37.288 25.183-29.775 0-55.375-25.183-81.254-25.044-16.835 0-37.288 5.148-37.288 25.183"/><path d="M717.399 1030.844c0-21.427-21.705-25.183-37.288-25.183-29.775 0-55.236 25.183-81.254 25.322-16.835 0-37.288-4.035-37.288-25.183"/><path d="M717.399 1030.844c0 18.783-21.705 25.183-37.288 25.183-29.775 0-55.375-25.183-81.254-25.044-16.835 0-37.288 5.148-37.288 25.183"/><path d="M717.399 1081.211c0-21.427-21.705-25.183-37.288-25.183-29.775 0-55.236 25.183-81.254 25.322-16.835 0-37.288-4.035-37.288-25.183"/></g><path fill="none" stroke="#808285" stroke-miterlimit="10" stroke-width="1.113" d="m718.791 640.852 1.808 421.854H552.804l-.139-330.304 166.126-91.55z"/><path fill="#e6e7e8" stroke="#808285" stroke-miterlimit="10" stroke-width="1.113" d="M559.621 1062.706h-6.817V732.541l6.817-3.896v334.061z"/><g clip-path="url(#c)"><path fill="#e6e7e8" stroke="#808285" stroke-miterlimit="10" stroke-width="1.113" d="M1470.114 358.131 599.414 838.7l-14.053-27.131 871.257-478.064 13.496 24.626z"/></g><g clip-path="url(#d)" stroke-miterlimit="10" stroke-width="1.113"><path fill="#e6e7e8" stroke="#808285" d="m903.592 604.045 83.199-45.633 13.85 25.253-83.198 45.632z"/><g clip-path="url(#e)" fill="none" stroke="#bcbec0"><path d="m901.473 644.191 8.905-55.097M908.987 640.156l8.904-55.236M916.5 635.982l9.044-55.097M924.013 631.808l9.044-55.097M931.526 627.634l9.044-55.097M939.04 623.599l9.043-55.097M946.692 619.425l8.905-55.097M954.205 615.251l8.905-55.097M961.718 611.216l8.905-55.097M969.232 607.042l9.043-55.097M976.745 602.868l9.044-55.097M984.258 598.833l9.044-55.236M991.911 594.659l8.904-55.097"/></g><path fill="none" stroke="#808285" d="m903.592 604.045 83.199-45.633 13.85 25.253-83.198 45.632z"/></g><g clip-path="url(#f)"><path fill="#e6e7e8" stroke="#808285" stroke-miterlimit="10" stroke-width="1.113" d="M1442.844 308.321 571.448 786.247l-17.392-32.279 872.926-476.117 15.862 30.47z"/></g><g clip-path="url(#g)" stroke-miterlimit="10" stroke-width="1.113"><path fill="#e6e7e8" stroke="#808285" d="m571.316 786.295 83.198-45.633 13.85 25.252-83.197 45.633z"/><g clip-path="url(#h)" fill="none" stroke="#bcbec0"><path d="m569.222 826.456 8.904-55.097M576.735 822.421l8.904-55.097M584.248 818.247l8.905-55.097M591.761 814.073l8.905-55.097M599.274 810.039l9.044-55.237M606.788 805.865l9.043-55.098M614.301 801.691l9.044-55.098M621.953 797.517l8.905-55.098M629.467 793.482l8.904-55.097M636.98 789.308l8.904-55.097M644.493 785.134l9.044-55.097M652.006 781.099l9.044-55.236M659.519 776.925l9.044-55.097"/></g><path fill="none" stroke="#808285" d="m571.316 786.295 83.198-45.633 13.85 25.252-83.197 45.633z"/></g><g clip-path="url(#i)" stroke-miterlimit="10" stroke-width="1.113"><path fill="#e6e7e8" stroke="#808285" d="m654.542 740.678 83.198-45.633 13.85 25.252-83.198 45.633z"/><g clip-path="url(#j)" fill="none" stroke="#bcbec0"><path d="m633.362 746.176 51.341 21.983M640.875 742.002l51.341 21.983M648.389 737.828l51.34 22.122M655.902 733.654l51.34 22.122M663.554 729.619l51.202 21.983M671.068 725.445l51.201 22.122M678.581 721.271l51.34 22.122M686.094 717.236l51.34 21.983M693.607 713.062l51.341 21.983M701.12 708.888l51.341 22.122M708.634 704.853l51.34 21.983M716.286 700.679l51.201 21.983M723.799 696.505l51.202 22.123"/></g><path fill="none" stroke="#808285" d="m654.542 740.678 83.198-45.633 13.85 25.252-83.198 45.633z"/></g><g clip-path="url(#k)" stroke-miterlimit="10" stroke-width="1.113"><path fill="#e6e7e8" stroke="#808285" d="m737.89 694.994 83.197-45.633 13.85 25.252-83.198 45.633z"/><g clip-path="url(#l)" fill="none" stroke="#bcbec0"><path d="m735.626 735.184 9.043-55.097M743.139 731.01l9.044-55.097M750.652 726.976l9.044-55.237M758.305 722.802l8.904-55.097M765.818 718.628l8.904-55.098M773.331 714.454l8.905-55.098M780.844 710.419l9.044-55.097M788.357 706.245l9.044-55.097M795.871 702.071l9.043-55.097M803.523 698.036l8.905-55.236M811.036 693.862l8.905-55.097M818.55 689.688l8.904-55.097M826.063 685.514l8.904-55.097"/></g><path fill="none" stroke="#808285" d="m737.89 694.994 83.197-45.633 13.85 25.252-83.198 45.633z"/></g><g clip-path="url(#m)" stroke-miterlimit="10" stroke-width="1.113"><path fill="#e6e7e8" stroke="#808285" d="m821.116 649.376 83.198-45.633 13.85 25.252-83.198 45.633z"/><g clip-path="url(#n)" fill="none" stroke="#bcbec0"><path d="m799.906 654.765 51.201 22.122M807.419 650.591l51.201 22.122M814.932 646.556l51.34 21.983M822.445 642.382l51.341 22.122M829.959 638.208l51.34 22.122M837.472 634.173l51.34 21.983M844.985 629.999l51.34 21.983M852.637 625.825l51.202 22.123M860.151 621.79l51.201 21.984M867.664 617.616l51.34 21.984M875.177 613.442l51.34 22.123M882.69 609.268l51.341 22.123M890.204 605.233l51.34 21.984"/></g><path fill="none" stroke="#808285" d="m821.116 649.376 83.198-45.633 13.85 25.252-83.198 45.633z"/></g><g clip-path="url(#o)" stroke-miterlimit="10" stroke-width="1.113"><path fill="#e6e7e8" stroke="#808285" d="m986.94 558.362 83.198-45.633 13.85 25.252-83.198 45.633z"/><g clip-path="url(#p)" fill="none" stroke="#bcbec0"><path d="m965.614 563.911 51.341 21.983M973.127 559.737l51.341 21.983M980.641 555.563l51.34 22.122M988.293 551.389l51.201 22.122M995.806 547.354l51.202 21.983M1003.319 543.18l51.341 21.983M1010.833 539.006l51.34 22.122M1018.346 534.971l51.34 21.983M1025.859 530.797l51.341 21.983M1033.512 526.623l51.201 22.122M1041.025 522.588l51.201 21.983M1048.538 518.414l51.341 21.983M1056.051 514.24l51.341 22.122"/></g><path fill="none" stroke="#808285" d="m986.94 558.362 83.198-45.633 13.85 25.252-83.198 45.633z"/></g><g clip-path="url(#q)" stroke-miterlimit="10" stroke-width="1.113"><path fill="#e6e7e8" stroke="#808285" d="m1070.166 512.743 83.198-45.633 13.85 25.252-83.198 45.633z"/><g clip-path="url(#r)" fill="none" stroke="#bcbec0"><path d="m1067.878 552.919 9.043-55.097M1075.53 548.745l8.905-55.097M1083.043 544.571l8.905-55.097M1090.556 540.536l8.905-55.097M1098.07 536.362l8.904-55.097M1105.583 532.188l9.044-55.097M1113.096 528.153l9.044-55.097M1120.609 523.979l9.044-55.097M1128.262 519.805l8.904-55.097M1135.775 515.77l8.905-55.236M1143.288 511.596l8.905-55.097M1150.801 507.422l9.044-55.097M1158.315 503.248l9.043-55.097"/></g><path fill="none" stroke="#808285" d="m1070.166 512.743 83.198-45.633 13.85 25.252-83.198 45.633z"/></g><g clip-path="url(#s)" stroke-miterlimit="10" stroke-width="1.113"><path fill="#e6e7e8" stroke="#808285" d="m1236.429 421.504 83.198-45.633 13.85 25.252-83.198 45.633z"/><g clip-path="url(#t)" fill="none" stroke="#bcbec0"><path d="m1234.282 461.647 8.904-55.097M1241.795 457.473l8.905-55.097M1249.308 453.438l9.044-55.097M1256.822 449.264l9.043-55.097M1264.335 445.09l9.043-55.097M1271.987 441.055l8.905-55.097M1279.5 436.881l8.905-55.097M1287.014 432.707l8.904-55.097M1294.527 428.672l8.904-55.236M1302.04 424.498l9.044-55.097M1309.553 420.324l9.044-55.097M1317.067 416.15l9.043-55.097M1324.719 412.115l8.905-55.097"/></g><path fill="none" stroke="#808285" d="m1236.429 421.504 83.198-45.633 13.85 25.252-83.198 45.633z"/></g><g clip-path="url(#u)" stroke-miterlimit="10" stroke-width="1.113"><path fill="#e6e7e8" stroke="#808285" d="m1153.392 467.126 83.198-45.633 13.85 25.252-83.198 45.633z"/><g clip-path="url(#v)" fill="none" stroke="#bcbec0"><path d="m1132.157 472.5 51.202 22.122M1139.671 468.326l51.34 22.122M1147.184 464.291l51.34 21.983M1154.697 460.117l51.341 21.983M1162.21 455.943l51.341 22.122M1169.863 451.908l51.201 21.983M1177.376 447.734l51.201 21.983M1184.889 443.56l51.341 22.122M1192.403 439.525l51.34 21.983M1199.916 435.351l51.34 21.983M1207.429 431.177l51.34 22.122M1214.942 427.003l51.341 22.122M1222.595 422.968l51.201 21.983"/></g><path fill="none" stroke="#808285" d="m1153.392 467.126 83.198-45.633 13.85 25.252-83.198 45.633z"/></g><g clip-path="url(#w)" stroke-miterlimit="10" stroke-width="1.113"><path fill="#e6e7e8" stroke="#808285" d="m1402.591 330.63 83.199-45.632 13.85 25.252-83.198 45.632z"/><g clip-path="url(#x)" fill="none" stroke="#bcbec0"><path d="m1400.408 370.793 8.904-55.097M1407.921 366.619l8.905-55.097M1415.434 362.445l8.905-55.097M1422.947 358.41l9.044-55.097M1430.461 354.236l9.043-55.097M1437.974 350.062l9.044-55.097M1445.487 345.888l9.044-55.097M1453.14 341.853l8.904-55.097M1460.653 337.679l8.904-55.097M1468.166 333.505l8.905-55.097M1475.679 329.47l9.044-55.097M1483.193 325.296l9.043-55.097M1490.706 321.122l9.044-55.097"/></g><path fill="none" stroke="#808285" d="m1402.591 330.63 83.199-45.632 13.85 25.252-83.198 45.632z"/></g><g clip-path="url(#y)" stroke-miterlimit="10" stroke-width="1.113"><path fill="#e6e7e8" stroke="#808285" d="m1319.486 376.13 83.198-45.633 13.85 25.252-83.198 45.633z"/><g clip-path="url(#z)" fill="none" stroke="#bcbec0"><path d="m1298.283 381.645 51.202 21.983M1305.797 377.471l51.201 21.983M1313.31 373.297l51.34 22.122M1320.823 369.262l51.341 21.983M1328.336 365.088l51.341 21.983M1335.85 360.914l51.34 22.122M1343.363 356.74l51.34 22.122M1351.015 352.705l51.202 21.983M1358.528 348.531l51.202 22.123M1366.042 344.357l51.34 22.123M1373.555 340.322l51.34 21.983M1381.068 336.148l51.341 21.983M1388.581 331.974l51.341 22.123"/></g><path fill="none" stroke="#808285" d="m1319.486 376.13 83.198-45.633 13.85 25.252-83.198 45.633z"/></g><path fill="none" stroke="#808285" stroke-miterlimit="10" stroke-width="1.113" d="m1467.888 358.966-626.66 344.357-95.863 1.252-.417-46.749 683.426-373.018 39.514 74.158z"/><path fill="#ed1c24" d="m1377.674 291.17 20.853-11.453 4.756 8.659-20.854 11.453z"/><path fill="#fff" d="m1398.758 279.771 20.487-11.252 4.555 8.293-20.487 11.252z"/><path d="m1403.33 287.73 20.174-11.131-4.313-7.931-20.174 11.131 4.313 7.931m-.139.556-4.731-8.626 20.87-11.548 4.731 8.626-20.87 11.548ZM1335.878 314l20.854-11.454 4.756 8.659-20.854 11.453z" fill="#ed1c24"/><path fill="#fff" d="m1356.97 302.636 20.487-11.252 4.555 8.293-20.487 11.252z"/><path d="m1361.589 310.687 20.174-11.131-4.313-7.931-20.174 11.131 4.313 7.931m-.139.556-4.731-8.626 20.87-11.548 4.731 8.626-20.87 11.548ZM1294.15 336.951l20.853-11.453 4.756 8.659-20.854 11.453z" fill="#ed1c24"/><path fill="#fff" d="m1315.237 325.563 20.488-11.252 4.554 8.292-20.487 11.253z"/><path d="m1319.849 333.644 20.174-11.131-4.313-7.931-20.174 11.131 4.313 7.931m-.139.556-4.731-8.626 20.87-11.548 4.731 8.626-20.87 11.548ZM1252.3 359.97l20.854-11.454 4.756 8.66-20.854 11.453z" fill="#ed1c24"/><path fill="#fff" d="m1273.51 348.515 20.487-11.253 4.554 8.293-20.487 11.252z"/><path d="m1278.109 356.601 20.174-11.131-4.313-7.931-20.174 11.131 4.313 7.931m-.139.557-4.731-8.626 20.87-11.548 4.731 8.626-20.87 11.548ZM1210.572 382.923l20.854-11.453 4.756 8.659-20.854 11.453z" fill="#ed1c24"/><path fill="#fff" d="m1231.783 371.479 20.488-11.253 4.554 8.293-20.487 11.252z"/><path d="m1236.369 379.419 20.174-11.131-4.313-7.931-20.174 11.131 4.313 7.931m-.139.556-4.731-8.626 20.87-11.548 4.731 8.626-20.87 11.548ZM1168.844 405.874l20.854-11.454 4.756 8.66-20.854 11.453z" fill="#ed1c24"/><path fill="#fff" d="m1190.053 394.406 20.487-11.252 4.555 8.293-20.488 11.252z"/><path d="m1194.629 402.376 20.174-11.131-4.313-7.931-20.174 11.131 4.313 7.931m-.139.557-4.731-8.626 20.87-11.548 4.731 8.626-20.87 11.548ZM1127.049 428.702l20.854-11.453 4.755 8.659-20.853 11.453z" fill="#ed1c24"/><path fill="#fff" d="m1148.258 417.236 20.487-11.253 4.555 8.293-20.487 11.252z"/><path d="m1152.888 425.333 20.174-11.131-4.313-7.931-20.174 11.131 4.313 7.931m-.139.557-4.731-8.626 20.87-11.548 4.731 8.626-20.87 11.548ZM1085.321 451.652l20.854-11.453 4.755 8.659-20.853 11.453z" fill="#ed1c24"/><path fill="#fff" d="m1106.532 440.21 20.487-11.252 4.555 8.292-20.487 11.252z"/><path d="m1111.148 448.29 20.174-11.131-4.313-7.931-20.174 11.131 4.313 7.931m-.139.557-4.731-8.626 20.87-11.548 4.731 8.626-20.87 11.548ZM1043.593 474.603l20.854-11.454 4.756 8.66-20.854 11.453z" fill="#ed1c24"/><path fill="#fff" d="m1064.68 463.216 20.488-11.253 4.555 8.293-20.488 11.252z"/><path d="m1069.408 471.247 20.174-11.131-4.313-7.931-20.174 11.131 4.313 7.931m-.139.557-4.731-8.626 20.87-11.548 4.731 8.626-20.87 11.548ZM1001.865 497.539l20.854-11.453 4.755 8.658-20.853 11.454z" fill="#ed1c24"/><path fill="#fff" d="m1022.953 486.167 20.487-11.252 4.555 8.292-20.487 11.253z"/><path d="m1027.668 494.065 20.174-11.131-4.313-7.931-20.174 11.131 4.313 7.931m-.139.557-4.731-8.626 20.87-11.548 4.731 8.626-20.87 11.548ZM960.135 520.52l20.854-11.453 4.756 8.66-20.854 11.453z" fill="#ed1c24"/><path fill="#fff" d="m981.224 509.13 20.487-11.253 4.555 8.293-20.488 11.252z"/><path d="m985.928 517.022 20.174-11.131-4.313-7.931-20.174 11.131 4.313 7.931m-.139.557-4.731-8.626 20.87-11.548 4.731 8.626-20.87 11.548ZM918.341 543.337l20.854-11.454 4.756 8.659-20.854 11.454z" fill="#ed1c24"/><path fill="#fff" d="m939.432 531.939 20.487-11.252 4.555 8.292-20.488 11.253z"/><path d="m944.188 539.98 20.174-11.131-4.313-7.931-20.174 11.131 4.313 7.931m-.14.556-4.731-8.626 20.87-11.548 4.731 8.626-20.87 11.548ZM876.613 566.288l20.854-11.453 4.755 8.658-20.853 11.453z" fill="#ed1c24"/><path fill="#fff" d="m897.708 554.87 20.487-11.253 4.554 8.292-20.487 11.253z"/><path d="m902.447 562.937 20.174-11.131-4.313-7.931-20.174 11.131 4.313 7.931m-.139.556-4.731-8.626 20.87-11.548 4.731 8.626-20.87 11.548ZM834.886 589.237l20.853-11.454 4.756 8.658-20.854 11.454z" fill="#ed1c24"/><path fill="#fff" d="m855.98 577.822 20.487-11.252 4.555 8.292-20.487 11.253z"/><path d="m860.707 585.894 20.174-11.131-4.313-7.931-20.174 11.131 4.313 7.931m-.139.556-4.731-8.626 20.87-11.548 4.731 8.626-20.87 11.548ZM793.158 612.188l20.853-11.453 4.756 8.658-20.854 11.453z" fill="#ed1c24"/><path fill="#fff" d="m814.242 600.821 20.488-11.252 4.554 8.293-20.487 11.252z"/><path d="m818.967 608.712 20.174-11.131-4.313-7.931-20.174 11.131 4.313 7.931m-.139.556-4.731-8.626 20.87-11.548 4.731 8.626-20.87 11.548ZM751.43 635.139l20.853-11.454 4.756 8.658-20.854 11.454z" fill="#ed1c24"/><path fill="#fff" d="M772.513 623.771 793 612.52l4.555 8.293-20.487 11.252z"/><path d="m777.227 631.669 20.174-11.131-4.313-7.931-20.174 11.131 4.313 7.931m-.139.556-4.731-8.626 20.87-11.548 4.731 8.626-20.87 11.548ZM737.295 654.069v21.705h-9.878v-27.548l9.878 5.843z" fill="#ed1c24"/><path fill="#fff" d="m751.348 635.286 4.591 8.348-18.922 10.296-9.183-5.704 23.514-12.94z"/><path d="m736.878 653.791 18.783-10.296-4.313-7.931-22.957 12.522 8.487 5.705m.417.278-9.878-5.844 24.07-13.218 4.731 8.626-18.922 10.435ZM727.417 699.984h9.878v24.209h-9.878z" fill="#ed1c24"/><path fill="#fff" d="M727.556 675.913h9.461v23.792h-9.461z"/><path d="M736.878 699.566v-23.374h-9.044v23.374h9.044m.417.418h-9.878v-24.209h9.878v24.209ZM727.417 748.402h9.878v24.209h-9.878z" fill="#ed1c24"/><path fill="#fff" d="M727.556 724.471h9.461v23.792h-9.461z"/><path d="M736.878 747.985v-23.374h-9.044v23.374h9.044m.417.417h-9.878v-24.209h9.878v24.209ZM727.417 796.821h9.878v24.209h-9.878z" fill="#ed1c24"/><path fill="#fff" d="M727.556 772.89h9.461v23.792h-9.461z"/><path d="M736.878 796.543v-23.374h-9.044v23.374h9.044m.417.417h-9.878v-24.209h9.878v24.209ZM727.556 845.24h9.878v24.209h-9.878z" fill="#ed1c24"/><path fill="#fff" d="M727.695 821.308h9.461V845.1h-9.461z"/><path d="M737.017 844.961v-23.374h-9.044v23.374h9.044m.417.418h-9.878V821.17h9.878v24.209ZM727.556 893.797h9.878v24.209h-9.878z" fill="#ed1c24"/><path fill="#fff" d="M727.695 869.727h9.461v23.792h-9.461z"/><path d="M737.017 893.38v-23.374h-9.044v23.374h9.044m.417.417h-9.878v-24.209h9.878v24.209ZM727.556 942.216h9.878v24.209h-9.878z" fill="#ed1c24"/><path fill="#fff" d="M727.695 918.285h9.461v23.792h-9.461z"/><path d="M737.017 941.798v-23.374h-9.044v23.374h9.044m.417.418h-9.878v-24.209h9.878v24.209ZM727.556 990.635h9.878v24.209h-9.878z" fill="#ed1c24"/><path fill="#fff" d="M727.695 966.703h9.461v23.792h-9.461z"/><path d="M737.017 990.356v-23.374h-9.044v23.374h9.044m.417.418h-9.878v-24.209h9.878v24.209ZM727.695 1039.053h9.878v24.209h-9.878z" fill="#ed1c24"/><path fill="#fff" d="M727.834 1015.122h9.461v23.792h-9.461z"/><path d="M737.156 1038.775v-23.374h-9.044v23.374h9.044m.418.417h-9.878v-24.209h9.878v24.209Z" fill="#ed1c24"/><g clip-path="url(#A)"><path fill="#e6e7e8" stroke="#808285" stroke-miterlimit="10" stroke-width="1.113" d="M1437.974 268.668 498.541 762.455l-85.567-165.152 936.928-495.595 88.072 166.96z"/></g><g clip-path="url(#B)" fill="none" stroke="#bcbec0" stroke-miterlimit="10" stroke-width="1.113"><path d="M1291.049 322.513c-17.392 9.6-34.088-6.4-41.74-20.314-14.609-26.575-3.896-62.193-16.557-85.289-8.209-15.026-23.096-30.609-41.74-20.314"/><path d="M1244.3 348.253c19.896-10.992 12.661-32.279 5.009-46.192-14.609-26.575-50.506-36.314-63.306-59.549-8.209-15.026-14.609-35.34 5.009-46.192M1244.3 348.253c-17.392 9.6-34.088-6.4-41.74-20.314-14.609-26.575-3.896-62.193-16.557-85.289-8.209-15.026-23.096-30.609-41.74-20.314"/><path d="M1197.55 374.132c19.896-10.992 12.661-32.279 5.009-46.192-14.609-26.575-50.506-36.314-63.306-59.549-8.209-15.026-14.609-35.34 5.009-46.192M1385.521 270.06c-17.392 9.6-34.088-6.4-41.74-20.314-14.609-26.575-3.896-62.193-16.557-85.289-8.209-15.026-23.096-30.609-41.74-20.314"/><path d="M1338.771 295.799c19.896-10.992 12.661-32.279 5.009-46.192-14.609-26.575-50.506-36.314-63.306-59.549-8.209-15.026-14.609-35.34 5.009-46.192M1338.771 295.799c-17.392 9.6-34.088-6.4-41.74-20.314-14.609-26.575-3.896-62.193-16.557-85.289-8.209-15.026-23.096-30.609-41.74-20.314"/><path d="M1292.022 321.678c19.896-10.992 12.661-32.279 5.009-46.192-14.609-26.575-50.506-36.314-63.306-59.549-8.209-15.026-14.609-35.34 5.009-46.192M1479.853 217.606c-17.392 9.6-34.088-6.4-41.74-20.314-14.609-26.575-3.896-62.193-16.557-85.289-8.209-15.026-23.096-30.609-41.74-20.314"/><path d="M1433.104 243.346c19.896-10.992 12.661-32.279 5.009-46.192-14.609-26.575-50.506-36.314-63.306-59.549-8.209-15.026-14.609-35.34 5.009-46.192M1433.104 243.346c-17.392 9.6-34.088-6.4-41.74-20.314-14.609-26.575-3.896-62.193-16.557-85.289-8.209-15.026-23.096-30.609-41.74-20.314"/><path d="M1386.494 269.225c19.896-10.992 12.661-32.279 5.009-46.192-14.609-26.575-50.506-36.314-63.306-59.549-8.209-15.026-14.609-35.34 5.009-46.192M1196.298 374.828c-17.392 9.6-34.088-6.4-41.74-20.314-14.609-26.575-3.896-62.193-16.557-85.289-8.209-15.026-23.096-30.609-41.74-20.314"/><path d="M1149.549 400.567c19.896-10.992 12.661-32.279 5.009-46.192-14.609-26.575-50.506-36.314-63.306-59.549-8.209-15.026-14.609-35.34 5.009-46.192M1149.549 400.567c-17.392 9.6-34.088-6.4-41.74-20.314-14.609-26.575-3.896-62.193-16.557-85.289-8.209-15.026-23.096-30.609-41.74-20.314"/><path d="M1102.8 426.446c19.896-10.992 12.661-32.279 5.009-46.192-14.609-26.575-50.506-36.314-63.306-59.549-8.209-15.026-14.609-35.34 5.009-46.192M1101.548 427.142c-17.392 9.6-34.088-6.4-41.74-20.314-14.609-26.575-3.896-62.193-16.557-85.289-8.209-15.026-23.096-30.609-41.74-20.314"/><path d="M1054.799 453.021c19.896-10.992 12.661-32.279 5.009-46.192-14.609-26.575-50.506-36.314-63.306-59.549-8.209-15.026-14.609-35.34 5.009-46.192M1054.799 453.021c-17.392 9.6-34.088-6.4-41.74-20.314-14.609-26.575-3.896-62.193-16.557-85.289-8.209-15.026-23.096-30.609-41.74-20.314"/><path d="M1008.05 478.761c19.896-10.992 12.661-32.279 5.009-46.192-14.609-26.435-50.506-36.314-63.306-59.41-8.209-15.026-14.609-35.34 5.009-46.192M1006.798 479.456c-17.392 9.6-34.088-6.4-41.74-20.314-14.609-26.575-3.896-62.193-16.557-85.289-8.209-15.026-23.096-30.609-41.74-20.314"/><path d="M960.049 505.335c19.896-10.992 12.661-32.279 5.009-46.192-14.609-26.575-50.506-36.314-63.306-59.549-8.209-15.026-14.609-35.34 5.009-46.192M960.049 505.335c-17.392 9.6-34.088-6.4-41.74-20.314-14.609-26.575-3.896-62.193-16.557-85.289-8.209-15.026-23.096-30.609-41.74-20.314"/><path d="M913.3 531.075c19.896-10.992 12.661-32.279 5.009-46.192-14.609-26.575-50.506-36.314-63.306-59.549-8.209-15.026-14.609-35.34 5.009-46.192M912.048 531.771c-17.392 9.6-34.088-6.4-41.74-20.314-14.609-26.575-3.896-62.193-16.557-85.289-8.209-15.026-23.096-30.609-41.74-20.314"/><path d="M865.299 557.65c19.896-10.992 12.661-32.279 5.009-46.192-14.609-26.575-50.506-36.314-63.306-59.549-8.209-15.026-14.609-35.34 5.009-46.192M865.299 557.65c-17.392 9.6-34.088-6.4-41.74-20.314-14.609-26.575-3.896-62.193-16.557-85.289-8.209-15.026-23.096-30.609-41.74-20.314"/><path d="M818.55 583.389c19.896-10.992 12.661-32.279 5.009-46.192-14.609-26.575-50.506-36.314-63.306-59.549-8.209-15.026-14.609-35.34 5.009-46.192M817.297 584.224c-17.392 9.6-34.088-6.4-41.74-20.314-14.609-26.575-3.896-62.193-16.557-85.289-8.209-15.026-23.096-30.609-41.74-20.314"/><path d="M770.548 609.964c19.896-10.992 12.661-32.279 5.009-46.192-14.609-26.575-50.506-36.314-63.306-59.549-8.209-15.026-14.609-35.34 5.009-46.192M770.548 609.964c-17.392 9.6-34.088-6.4-41.74-20.314-14.609-26.575-3.896-62.193-16.557-85.289-8.209-15.026-23.096-30.609-41.74-20.314"/><path d="M723.799 635.843c19.896-10.992 12.661-32.279 5.009-46.192-14.609-26.575-50.506-36.314-63.306-59.549-8.209-15.026-14.609-35.34 5.009-46.192M722.547 636.539c-17.392 9.6-34.088-6.4-41.74-20.314-14.609-26.575-3.896-62.193-16.557-85.289-8.209-15.026-23.096-30.609-41.74-20.314"/><path d="M675.798 662.278c19.896-10.992 12.661-32.279 5.009-46.192-14.609-26.575-50.506-36.314-63.306-59.549-8.209-15.026-14.609-35.34 5.009-46.192M675.798 662.278c-17.392 9.6-34.088-6.4-41.74-20.314-14.609-26.575-3.896-62.193-16.557-85.289-8.209-15.026-23.096-30.609-41.74-20.314"/><path d="M629.049 688.157c19.896-10.992 12.661-32.279 5.009-46.192-14.609-26.575-50.506-36.314-63.306-59.549-8.209-15.026-14.609-35.34 5.009-46.192M627.797 688.853c-17.392 9.6-34.088-6.4-41.74-20.314-14.609-26.575-3.896-62.193-16.557-85.289-8.209-15.026-23.096-30.609-41.74-20.314"/><path d="M581.048 714.732c19.896-10.992 12.661-32.279 5.009-46.192-14.609-26.575-50.506-36.314-63.306-59.549-8.209-15.026-14.609-35.34 5.009-46.192M581.048 714.732c-17.392 9.6-34.088-6.4-41.74-20.314-14.609-26.575-3.896-62.193-16.557-85.289-8.209-15.026-23.096-30.609-41.74-20.314"/><path d="M534.299 740.472c19.896-10.992 12.661-32.279 5.009-46.192-14.609-26.575-50.506-36.314-63.306-59.549-8.209-15.026-14.609-35.34 5.009-46.192"/></g><path fill="none" stroke="#808285" stroke-miterlimit="10" stroke-width="1.113" d="M1415.434 260.459 552.665 732.541l-.279-186.996 784.02-434.237 79.028 149.151z"/><path fill="#009ad9" d="m1285.05 120.983 21.829-11.99 4.755 8.66-21.829 11.99z"/><path fill="#fff" d="m1307.132 109.129 21.464-11.789 4.555 8.293-21.464 11.789z"/><path d="m1311.64 117.151 21.009-11.548-4.313-7.931-21.009 11.548 4.313 7.931m-.139.557-4.731-8.626 21.844-11.966 4.731 8.626-21.844 11.966ZM1241.52 144.927l21.83-11.99 4.755 8.66-21.83 11.989z" fill="#009ad9"/><path fill="#fff" d="m1263.536 132.95 21.463-11.788 4.555 8.293-21.464 11.788z"/><path d="m1268.231 141.082 21.009-11.548-4.313-7.931-21.009 11.548 4.313 7.931m-.279.557-4.731-8.626 21.844-11.966 4.731 8.626-21.844 11.966ZM1197.99 168.87l21.828-11.99 4.756 8.66-21.83 11.989z" fill="#009ad9"/><path fill="#fff" d="m1220.005 156.893 21.464-11.789 4.554 8.293-21.464 11.789z"/><path d="m1224.682 164.874 21.009-11.548-4.313-7.931-21.009 11.548 4.313 7.931m-.14.557-4.731-8.626 21.844-11.966 4.731 8.626-21.844 11.966ZM1154.51 192.61l21.83-11.99 4.755 8.66-21.829 11.989z" fill="#009ad9"/><path fill="#fff" d="m1176.475 180.837 21.464-11.788 4.555 8.292-21.464 11.789z"/><path d="m1181.133 188.805 21.009-11.548-4.313-7.931-21.009 11.548 4.313 7.931m-.139.557-4.731-8.626 21.844-11.966 4.731 8.626-21.844 11.966ZM1110.98 216.554l21.83-11.989 4.756 8.659-21.83 11.99z" fill="#009ad9"/><path fill="#fff" d="m1133.066 204.714 21.464-11.789 4.555 8.293-21.464 11.788z"/><path d="m1137.584 212.736 21.009-11.548-4.313-7.931-21.009 11.548 4.313 7.931m-.139.557-4.731-8.626 21.844-11.966 4.731 8.626-21.844 11.966ZM1067.453 240.512l21.83-11.99 4.755 8.66-21.83 11.989z" fill="#009ad9"/><path fill="#fff" d="m1089.47 228.536 21.463-11.789 4.555 8.293-21.464 11.788z"/><path d="m1094.174 236.667 21.009-11.548-4.313-7.931-21.009 11.548 4.313 7.931m-.278.557-4.731-8.626 21.844-11.966 4.731 8.626-21.844 11.966ZM1023.922 264.455l21.83-11.989 4.755 8.66-21.829 11.988z" fill="#009ad9"/><path fill="#fff" d="m1045.94 252.48 21.463-11.789 4.555 8.293-21.464 11.788z"/><path d="m1050.625 260.599 21.009-11.548-4.313-7.931-21.009 11.548 4.313 7.931m-.139.556-4.731-8.626 21.844-11.966 4.731 8.626-21.844 11.966ZM980.448 288.21l21.83-11.99 4.755 8.66-21.83 11.989z" fill="#009ad9"/><path fill="#fff" d="m1002.409 276.423 21.463-11.789 4.555 8.293-21.464 11.788z"/><path d="m1007.076 284.39 21.009-11.548-4.313-7.931-21.009 11.548 4.313 7.931m-.139.557-4.731-8.626 21.844-11.966 4.731 8.626-21.844 11.966ZM936.917 312.154l21.83-11.989 4.755 8.66-21.83 11.988z" fill="#009ad9"/><path fill="#fff" d="m959 300.3 21.465-11.789 4.554 8.293-21.464 11.788z"/><path d="m963.527 308.321 21.009-11.548-4.313-7.931-21.009 11.548 4.313 7.931m-.139.557-4.731-8.626 21.844-11.966 4.731 8.626-21.844 11.966ZM893.387 336.097l21.83-11.99 4.755 8.66-21.83 11.989z" fill="#009ad9"/><path fill="#fff" d="m915.47 324.243 21.464-11.788 4.554 8.292-21.463 11.789z"/><path d="m920.117 332.253 21.009-11.548-4.313-7.931-21.009 11.548 4.313 7.931m-.278.556-4.731-8.626 21.844-11.966 4.731 8.626-21.844 11.966ZM849.857 360.041l21.829-11.989 4.756 8.659-21.83 11.99z" fill="#009ad9"/><path fill="#fff" d="m871.872 348.065 21.464-11.788 4.555 8.292-21.464 11.789z"/><path d="m876.568 356.184 21.009-11.548-4.313-7.931-21.009 11.548 4.313 7.931m-.139.556-4.731-8.626 21.844-11.966 4.731 8.626-21.844 11.966ZM806.448 383.918l21.829-11.99 4.756 8.66-21.83 11.989z" fill="#009ad9"/><path fill="#fff" d="m828.343 372.009 21.464-11.789 4.554 8.293-21.464 11.788z"/><path d="m833.019 379.975 21.009-11.548-4.313-7.931-21.009 11.548 4.313 7.931m-.139.557-4.731-8.626 21.844-11.966 4.731 8.626-21.844 11.966ZM762.85 407.74l21.83-11.99 4.756 8.66-21.83 11.988z" fill="#009ad9"/><path fill="#fff" d="m784.935 395.885 21.464-11.789 4.554 8.293-21.464 11.788z"/><path d="m789.471 403.907 21.009-11.548-4.313-7.931-21.009 11.548 4.313 7.931m-.14.556-4.731-8.626 21.844-11.966 4.731 8.626-21.844 11.966ZM719.32 431.683l21.83-11.99 4.756 8.66-21.83 11.99z" fill="#009ad9"/><path fill="#fff" d="m741.404 419.83 21.463-11.79 4.555 8.293-21.464 11.79z"/><path d="m746.061 427.838 21.009-11.548-4.313-7.931-21.009 11.548 4.313 7.931m-.278.556-4.731-8.626 21.844-11.966 4.731 8.626-21.844 11.966ZM675.791 455.625l21.83-11.989 4.755 8.659-21.83 11.99z" fill="#009ad9"/><path fill="#fff" d="m697.808 443.644 21.463-11.789 4.555 8.293-21.464 11.788z"/><path d="m702.512 451.769 21.009-11.548-4.313-7.931-21.009 11.548 4.313 7.931m-.139.556-4.731-8.626 21.844-11.966 4.731 8.626-21.844 11.966ZM632.382 479.502l21.83-11.99 4.755 8.66-21.83 11.989z" fill="#009ad9"/><path fill="#fff" d="m654.278 467.587 21.464-11.789 4.555 8.293-21.464 11.789z"/><path d="m658.963 475.7 21.009-11.548-4.313-8.07-21.009 11.548 4.313 8.07m-.139.556-4.731-8.626 21.844-11.966 4.731 8.626-21.844 11.966ZM588.785 503.324l21.83-11.99 4.755 8.66-21.829 11.988z" fill="#009ad9"/><path fill="#fff" d="m610.87 491.464 21.463-11.789 4.555 8.293-21.464 11.788z"/><path d="m615.414 499.492 21.009-11.548-4.313-7.931-21.009 11.548 4.313 7.931m-.139.556-4.731-8.626 21.844-11.966 4.731 8.626-21.844 11.966ZM545.255 527.266l21.829-11.989 4.756 8.66-21.83 11.988z" fill="#009ad9"/><path fill="#fff" d="m567.34 515.408 21.464-11.788 4.555 8.292-21.464 11.789z"/><path d="m572.004 523.423 21.009-11.548-4.313-7.931-21.009 11.548 4.313 7.931m-.278.556-4.731-8.626 21.844-11.966 4.731 8.626-21.844 11.966ZM501.724 551.21l21.83-11.989 4.755 8.66-21.83 11.989z" fill="#009ad9"/><path fill="#fff" d="m523.816 539.338 21.464-11.79 4.554 8.294-21.463 11.788z"/><path d="m528.455 547.354 21.009-11.548-4.313-7.931-21.009 11.548 4.313 7.931m-.139.556-4.731-8.626 21.844-11.966 4.731 8.626-21.844 11.966ZM458.316 575.088l21.83-11.99 4.755 8.658-21.83 11.99z" fill="#009ad9"/><path fill="#fff" d="m480.22 563.16 21.464-11.788 4.555 8.293-21.464 11.788z"/><path d="m484.906 571.285 21.009-11.548-4.313-7.931-21.009 11.548 4.313 7.931m-.139.556-4.731-8.626 21.844-11.966 4.731 8.626-21.844 11.966ZM414.797 599.013l21.829-11.99 4.755 8.658-21.829 11.99z" fill="#009ad9"/><path fill="#fff" d="m436.814 587.037 21.464-11.789 4.554 8.293-21.464 11.789z"/><path d="m441.357 595.077 21.009-11.548-4.313-7.931-21.009 11.548 4.313 7.931m-.139.556-4.731-8.626 21.844-11.965 4.731 8.626-21.844 11.965ZM371.2 622.835l21.83-11.99 4.755 8.658-21.829 11.99z" fill="#009ad9"/><path fill="#fff" d="m393.283 610.981 21.464-11.788 4.555 8.292-21.464 11.789z"/><path d="m397.948 619.008 21.009-11.548-4.313-7.931-21.009 11.548 4.313 7.931m-.279.556-4.731-8.626 21.844-11.965 4.731 8.626-21.844 11.965ZM327.658 646.796l21.83-11.99 4.755 8.658-21.83 11.99z" fill="#009ad9"/><path fill="#fff" d="m349.754 634.925 21.464-11.788 4.554 8.292-21.464 11.789z"/><path d="m354.399 642.939 21.009-11.548-4.313-7.931-21.009 11.548 4.313 7.931m-.139.556-4.731-8.626 21.844-11.965 4.731 8.626-21.844 11.965ZM284.25 670.673l21.83-11.99 4.755 8.658-21.83 11.99z" fill="#009ad9"/><path fill="#fff" d="m306.158 658.748 21.464-11.788 4.555 8.292-21.464 11.789z"/><path d="m310.85 666.87 21.009-11.548-4.313-7.931-21.009 11.548 4.313 7.931m-.139.556-4.731-8.626 21.844-11.965 4.731 8.626-21.844 11.965ZM240.721 694.617l21.83-11.99 4.755 8.659-21.83 11.989z" fill="#009ad9"/><path fill="#fff" d="m262.752 682.626 21.463-11.789 4.555 8.293-21.464 11.788z"/><path d="m267.301 690.801 21.009-11.548-4.313-7.931-21.009 11.548 4.313 7.931m-.139.556-4.731-8.626 21.844-11.965 4.731 8.626-21.844 11.965ZM197.123 718.438l21.83-11.99 4.754 8.659-21.829 11.99z" fill="#009ad9"/><path fill="#fff" d="m219.221 706.57 21.464-11.789 4.555 8.293-21.464 11.789z"/><path d="m223.891 714.593 21.009-11.548-4.313-7.931-21.009 11.548 4.313 7.931m-.278.556-4.731-8.626 21.844-11.965 4.731 8.626-21.844 11.965Z" fill="#009ad9"/><g clip-path="url(#C)" stroke-miterlimit="10" stroke-width="1.113"><path fill="#e6e7e8" stroke="#808285" d="M745.29 701.453h31.444v576.571H745.29zM809.277 701.438h31.444v576.571h-31.444zM776.843 1015.45h32.418v104.629h-32.418z"/><g clip-path="url(#D)" fill="none" stroke="#bcbec0"><path d="m815.35 1115.159-49.532-37.844M815.35 1105.698l-49.532-37.844M815.35 1096.237l-49.532-37.983M815.35 1086.776l-49.532-37.984M815.35 1077.315l-49.532-37.984M815.35 1067.854l-49.532-37.984M815.35 1058.254l-49.532-37.845M815.35 1048.792l-49.532-37.844M815.35 1039.331l-49.532-37.844M815.35 1029.87l-49.532-37.844"/></g><path fill="none" stroke="#808285" d="M776.843 1015.45h32.418v104.629h-32.418z"/><path fill="#e6e7e8" stroke="#808285" d="M776.753 910.771h32.418V1015.4h-32.418z"/><g clip-path="url(#E)" fill="none" stroke="#bcbec0"><path d="m770.827 1038.914 49.531-37.844M770.827 1029.453l49.531-37.984M770.827 1019.992l49.531-37.984M770.827 1010.531l49.531-37.984M770.827 1001.07l49.531-37.984M770.827 991.469l49.531-37.844M770.827 982.008l49.531-37.844M770.827 972.547l49.531-37.844M770.827 963.086l49.531-37.844M770.827 953.625l49.531-37.845M770.827 944.164l49.531-37.845M770.827 934.703l49.531-37.845M770.827 925.242l49.531-37.984"/></g><path fill="none" stroke="#808285" d="M776.753 910.771h32.418V1015.4h-32.418z"/><path fill="#e6e7e8" stroke="#808285" d="M776.817 701.728h32.418v104.629h-32.418z"/><g clip-path="url(#F)" fill="none" stroke="#bcbec0"><path d="m770.827 829.796 49.531-37.845M770.827 820.334l49.531-37.844M770.827 810.873l49.531-37.844M770.827 801.412l49.531-37.844M770.827 791.951l49.531-37.844M770.827 782.49l49.531-37.844M770.827 773.029l49.531-37.845M770.827 763.568l49.531-37.984M770.827 754.107l49.531-37.984M770.827 744.646l49.531-37.984M770.827 735.184l49.531-37.983M770.827 725.584l49.531-37.844M770.827 716.123l49.531-37.844"/></g><path fill="none" stroke="#808285" d="M776.817 701.728h32.418v104.629h-32.418z"/><path fill="#e6e7e8" stroke="#808285" d="M776.803 806.093h32.418v104.629h-32.418z"/><g clip-path="url(#G)" fill="none" stroke="#bcbec0"><path d="m815.35 934.285-49.532-37.983M815.35 924.685l-49.532-37.844M815.35 915.224l-49.532-37.845M815.35 905.763l-49.532-37.845M815.35 896.302l-49.532-37.845M815.35 886.841l-49.532-37.845M815.35 877.379l-49.532-37.844M815.35 867.918l-49.532-37.844M815.35 858.457l-49.532-37.983M815.35 848.996l-49.532-37.984M815.35 839.535l-49.532-37.984M815.35 830.074l-49.532-37.984M815.35 820.474l-49.532-37.845"/></g><path fill="none" stroke="#808285" d="M776.803 806.093h32.418v104.629h-32.418z"/></g><path fill="none" stroke="#808285" stroke-miterlimit="10" stroke-width="1.113" d="M745.365 703.323h95.168v359.522h-95.168z"/><path fill="#e6e7e8" stroke="#808285" stroke-miterlimit="10" stroke-width="1.113" d="M1324.858 89.325 192.725 710.975l-13.496-24.487L1311.64 64.28l13.218 25.045zM830.224 309.18l21.319-11.47 7.778 14.457-21.319 11.47z"/><path fill="none" stroke="#808285" stroke-miterlimit="10" stroke-width="1.113" d="m851.524 297.747-13.635 25.879M830.098 309.156l29.218 3.061"/><path fill="#e6e7e8" stroke="#808285" stroke-miterlimit="10" stroke-width="1.113" d="m976.748 228.675 21.319-11.47 7.778 14.457-21.319 11.47z"/><path fill="none" stroke="#808285" stroke-miterlimit="10" stroke-width="1.113" d="m998.032 217.189-13.635 26.018M976.606 228.598l29.218 3.061"/><path fill="#e6e7e8" stroke="#808285" stroke-miterlimit="10" stroke-width="1.113" d="m1122.98 148.631 21.32-11.47 7.778 14.457-21.319 11.47z"/><path fill="none" stroke="#808285" stroke-miterlimit="10" stroke-width="1.113" d="m1144.262 137.048-13.635 26.018M1122.836 148.596l29.218 2.922"/><path fill="#e6e7e8" stroke="#808285" stroke-miterlimit="10" stroke-width="1.113" d="m1269.446 68.306 21.319-11.47 7.779 14.457-21.32 11.47z"/><path fill="none" stroke="#808285" stroke-miterlimit="10" stroke-width="1.113" d="m1290.77 56.906-13.635 25.879M1269.344 68.315l29.218 3.061"/><path fill="#e6e7e8" stroke="#808285" stroke-miterlimit="10" stroke-width="1.113" d="m1081.235 135.1 5.704 11.687 203.97-90.576 5.287 10.852 12.662-6.122-5.287-10.991-.418-.835-5.426-10.853-216.492 96.838z"/><path fill="#e6e7e8" stroke="#808285" stroke-miterlimit="10" stroke-width="1.113" d="m935.005 215.937 5.843 11.826 203.832-90.715 5.426 10.991 12.661-6.261-5.426-10.852-.418-.835-5.287-10.992-216.631 96.838z"/><path fill="#e6e7e8" stroke="#808285" stroke-miterlimit="10" stroke-width="1.113" d="m788.775 295.939 5.844 11.826 203.97-90.576 5.287 10.852 12.661-6.261-5.287-10.852-.417-.835-5.427-10.992-216.631 96.838zM641.989 376.358l5.843 11.826 203.831-90.715 5.427 10.992 12.661-6.261-5.426-10.853-.418-.974-5.287-10.852-216.631 96.837zM683.754 389.354l21.319-11.47 7.778 14.456-21.319 11.47z"/><path fill="none" stroke="#808285" stroke-miterlimit="10" stroke-width="1.113" d="m705.016 377.749-13.635 26.018M683.59 389.297l29.218 2.922"/><path fill="#e6e7e8" stroke="#808285" stroke-miterlimit="10" stroke-width="1.113" d="m495.898 457.056 5.704 11.687 203.971-90.576 5.287 10.852 12.661-6.122-5.287-10.991-.417-.835-5.427-10.853-216.492 96.838zM539.838 469.16l21.32-11.471 7.778 14.457-21.319 11.47z"/><path fill="none" stroke="#808285" stroke-miterlimit="10" stroke-width="1.113" d="m561.013 457.612-13.496 26.018M539.725 469.16l29.079 2.922"/><path fill="#e6e7e8" stroke="#808285" stroke-miterlimit="10" stroke-width="1.113" d="m351.894 536.919 5.844 11.687 203.831-90.576 5.426 10.852 12.662-6.122-5.427-10.991-.417-.835-5.287-10.853-216.632 96.838zM394.552 548.994l21.32-11.47 7.778 14.457-21.319 11.47z"/><path fill="none" stroke="#808285" stroke-miterlimit="10" stroke-width="1.113" d="m415.757 537.475-13.496 26.018M394.469 549.023l29.079 2.922"/><path fill="#e6e7e8" stroke="#808285" stroke-miterlimit="10" stroke-width="1.113" d="m206.638 616.642 5.705 11.827 203.97-90.576 5.426 10.852 12.523-6.261-5.288-10.853-.417-.834-5.426-10.853-216.493 96.698zM248.528 629.45l21.32-11.47 7.778 14.456-21.319 11.47z"/><path fill="none" stroke="#808285" stroke-miterlimit="10" stroke-width="1.113" d="m269.805 617.895-13.635 26.018M248.379 629.443l29.218 2.922"/><path fill="#e6e7e8" stroke="#808285" stroke-miterlimit="10" stroke-width="1.113" d="m60.687 697.062 5.704 11.826 203.971-90.576 5.287 10.852 12.661-6.261-5.287-10.852-.417-.835-5.427-10.852-216.492 96.698zM533.881 769.272l-188.109 106.16-79.306-25.045-58.297-113.116 325.295-181.43.417 213.431z"/><path fill="#009ad9" d="M538.334 573.093h9.879v25.74h-9.879z"/><path fill="#fff" d="m538.473 553.058 9.6-5.565v25.461h-9.6v-19.896z"/><path d="M547.795 572.676v-24.627l-9.044 5.148v19.479h9.044m.417.417h-9.879v-20.314l9.879-5.426v25.74ZM538.334 624.573h9.879v25.74h-9.879z" fill="#009ad9"/><path fill="#fff" d="M538.473 599.111h9.461v25.322h-9.461z"/><path d="M547.795 624.295V599.39h-9.044v24.905h9.044m.417.417h-9.879v-25.74h9.879v25.74ZM538.334 676.192h9.879v25.74h-9.879z" fill="#009ad9"/><path fill="#fff" d="M538.473 650.591h9.461v25.322h-9.461z"/><path d="M547.795 675.774v-24.905h-9.044v24.905h9.044m.417.418h-9.879v-25.74h9.879v25.74ZM538.334 727.671h9.879v25.74h-9.879z" fill="#009ad9"/><path fill="#fff" d="M538.473 702.21h9.461v25.322h-9.461z"/><path d="M547.795 727.254v-24.905h-9.044v24.905h9.044m.417.556h-9.879v-25.74h9.879v25.74ZM538.334 779.151h9.879v25.74h-9.879z" fill="#009ad9"/><path fill="#fff" d="M538.473 753.689h9.461v25.322h-9.461z"/><path d="M547.795 778.873v-24.905h-9.044v24.905h9.044m.417.417h-9.879v-25.74h9.879v25.74ZM538.334 830.77h9.879v25.74h-9.879z" fill="#009ad9"/><path fill="#fff" d="M538.473 805.169h9.461v25.322h-9.461z"/><path d="M547.795 830.352v-24.905h-9.044v24.905h9.044m.417.418h-9.879v-25.74h9.879v25.74ZM538.334 882.249h9.879v25.74h-9.879z" fill="#009ad9"/><path fill="#fff" d="M538.473 856.788h9.461v25.322h-9.461z"/><path d="M547.795 881.971v-24.905h-9.044v24.905h9.044m.417.417h-9.879v-25.74h9.879v25.74ZM538.334 933.868h9.879v25.74h-9.879z" fill="#009ad9"/><path fill="#fff" d="M538.473 908.267h9.461v25.322h-9.461z"/><path d="M547.795 933.45v-24.905h-9.044v24.905h9.044m.417.418h-9.879v-25.74h9.879v25.74ZM538.334 985.347h9.879v25.74h-9.879z" fill="#009ad9"/><path fill="#fff" d="M538.473 959.886h9.461v25.322h-9.461z"/><path d="M547.795 985.069v-24.905h-9.044v24.905h9.044m.417.418h-9.879v-25.74h9.879v25.74ZM538.334 1036.966h9.879v25.74h-9.879z" fill="#009ad9"/><path fill="#fff" d="M538.473 1011.365h9.461v25.322h-9.461z"/><path d="M547.795 1036.549v-24.905h-9.044v24.905h9.044m.417.417h-9.879v-25.74h9.879v25.74Z" fill="#009ad9"/><path fill="#a2badb" d="M1287.972 1021.407h188.563v40h-188.563z"/><path d="M1301.321 1032.385h7.909l2.577 10.613h.051l2.577-10.613h7.909v18.041h-5.256v-11.572h-.051l-3.133 11.572h-4.145l-3.133-11.572h-.051v11.572h-5.256v-18.041ZM1338.711 1047.496c0 .984.025 2.096.606 2.93h-5.104a3.515 3.515 0 0 1-.177-1.238h-.051c-1.086 1.213-2.603 1.566-4.22 1.566-2.526 0-4.624-1.213-4.624-3.967 0-4.168 4.877-3.967 7.403-4.473.683-.125 1.365-.328 1.365-1.162 0-.885-.834-1.213-1.643-1.213-1.517 0-1.87.783-1.87 1.34h-4.649c.127-3.715 3.664-4.295 6.747-4.295 6.267 0 6.216 2.602 6.216 5.129v5.383Zm-4.801-2.957c-.606.303-1.289.455-1.971.631-1.112.279-1.693.531-1.693 1.416 0 .605.657 1.213 1.566 1.213 1.137 0 2.021-.658 2.098-2.047v-1.213ZM1340.525 1050.679h.834c1.011 0 1.39-.33 1.39-1.617v-11.75h5.003v12.229c0 2.098-.126 3.361-1.162 4.246-.936.809-2.502.885-3.715.885h-2.35v-3.992Zm7.227-14.783h-5.003v-3.512h5.003v3.512ZM1359.803 1050.426h-5.913l-4.296-13.113h5.281l2.047 7.984h.051l2.072-7.984h5.104l-4.346 13.113ZM1369.678 1044.994c.127 1.516.961 2.551 2.553 2.551.809 0 1.692-.303 2.097-.934h4.675c-1.011 2.83-3.79 4.143-6.746 4.143-4.195 0-7.354-2.475-7.354-6.848 0-3.814 2.754-6.922 6.924-6.922 5.205 0 7.454 2.879 7.454 8.01h-9.603Zm4.801-2.604c0-1.213-.91-2.197-2.198-2.197-1.517 0-2.351.783-2.578 2.197h4.776ZM1389.458 1041.127c-.025-.43-.253-.758-.581-.984-.304-.254-.683-.379-1.112-.379-.707 0-1.516.176-1.516 1.01 0 .379.303.557.581.682.809.33 2.729.48 4.396 1.012 1.693.531 3.133 1.516 3.133 3.664 0 3.639-3.486 4.623-6.67 4.623-3.083 0-6.469-1.236-6.545-4.623h4.775c.025.43.228.834.606 1.162.278.252.733.379 1.34.379.656 0 1.692-.252 1.692-1.01s-.43-.986-2.754-1.391c-3.815-.631-5.357-1.869-5.357-4.119 0-3.311 3.563-4.168 6.191-4.168 2.83 0 6.241.783 6.367 4.143h-4.548ZM1403.047 1037.312h2.679v3.082h-2.679v4.574c0 1.213.253 1.742 1.542 1.742.379 0 .758-.023 1.137-.074v3.789c-1.011 0-2.122.152-3.209.152-2.122 0-4.473-.328-4.473-3.916v-6.268h-2.224v-3.082h2.224v-3.992h5.003v3.992ZM1410.553 1031.57c1.496 0 2.83 1.076 2.83 2.748 0 1.682-1.334 2.764-2.83 2.764s-2.83-1.082-2.83-2.764c0-1.672 1.334-2.748 2.83-2.748Zm0 4.924c1.143 0 2.078-.914 2.078-2.176 0-1.252-.936-2.158-2.078-2.158-1.157 0-2.078.906-2.078 2.158 0 1.262.921 2.176 2.078 2.176Zm-1.099-3.723h1.165c.773 0 1.208.242 1.208.914 0 .566-.36.789-.811.824l.825 1.35h-.641l-.752-1.318h-.383v1.318h-.612v-3.088Zm.612 1.289h.545c.354 0 .604-.051.604-.428 0-.324-.354-.383-.634-.383h-.516v.811ZM1433.283 1050.426h-11.648c.101-5.256 5.533-6.568 8.515-9.551.985-.986 1.466-1.92 1.466-3.336 0-2.299-1.819-3.613-3.967-3.613-2.906 0-4.068 2.324-3.992 4.928h-1.593c-.075-3.639 1.819-6.268 5.66-6.268 3.083 0 5.483 1.693 5.483 4.979 0 2.957-2.122 4.801-4.447 6.293-1.718 1.137-4.902 2.754-5.307 5.104h9.83v1.465ZM1447.909 1041.683c0 4.145-1.011 9.121-6.166 9.121s-6.165-4.977-6.165-9.096c0-4.145 1.011-9.123 6.165-9.123s6.166 4.979 6.166 9.098Zm-10.739 0c0 3.082.53 7.783 4.573 7.783s4.574-4.701 4.574-7.783c0-3.059-.531-7.758-4.574-7.758s-4.573 4.699-4.573 7.758ZM1462.712 1041.683c0 4.145-1.011 9.121-6.166 9.121s-6.165-4.977-6.165-9.096c0-4.145 1.011-9.123 6.165-9.123s6.166 4.979 6.166 9.098Zm-10.739 0c0 3.082.53 7.783 4.573 7.783s4.574-4.701 4.574-7.783c0-3.059-.531-7.758-4.574-7.758s-4.573 4.699-4.573 7.758Z" fill="#504f53"/><circle cx="964.485" cy="478.605" r="21.96" fill="#fff" stroke="#4d4d4d" stroke-linecap="square" stroke-miterlimit="10" stroke-width="2"/><path d="M957.726 476.583c-.125-3.999 2.149-7.073 6.349-7.073 3.199 0 5.998 2.05 5.998 5.474 0 5.299-5.624 5.724-8.173 9.323h8.272v3.049h-12.847c0-4.074 2.5-5.749 5.523-7.823 1.525-1.075 3.675-2.125 3.675-4.274 0-1.674-1.1-2.699-2.625-2.699-2.099 0-2.774 2.174-2.774 4.024h-3.398Z" fill="#818084"/><circle cx="1113.205" cy="262.481" r="21.96" fill="#fff" stroke="#4d4d4d" stroke-linecap="square" stroke-miterlimit="10" stroke-width="2"/><path d="M1115.318 271.231h-3.55v-11.347h-4.398v-2.674c2.474.075 4.724-.8 5.123-3.474h2.825v17.496Z" fill="#818084"/><circle cx="580.352" cy="843.639" r="21.96" fill="#fff" stroke="#4d4d4d" stroke-linecap="square" stroke-miterlimit="10" stroke-width="2"/><path d="M578.366 841.968c1.524.125 3.725-.176 3.725-2.175 0-1.5-1.175-2.324-2.475-2.324-1.8 0-2.725 1.324-2.699 3.124h-3.374c.125-3.6 2.424-6.049 6.048-6.049 2.8 0 5.874 1.725 5.874 4.849 0 1.675-.825 3.1-2.449 3.574v.051c1.924.425 3.099 1.999 3.099 3.974 0 3.674-3.099 5.749-6.498 5.749-3.924 0-6.573-2.35-6.499-6.374h3.375c.074 1.899 1.024 3.449 3.074 3.449 1.6 0 2.849-1.074 2.849-2.749 0-2.649-2.324-2.6-4.049-2.6v-2.499Z" fill="#818084"/><path fill="none" d="M0 0h1500v1080.617H0z"/><circle cx="1259.753" cy="804.631" r="17.568" fill="#fff" stroke="#4d4d4d" stroke-linecap="square" stroke-miterlimit="10" stroke-width="1.6"/><path d="M1261.448 811.632h-2.841v-9.082h-3.521v-2.141c1.98.061 3.78-.64 4.101-2.78h2.261v14.003Z" fill="#818084"/><circle cx="1259.753" cy="946.766" r="17.568" fill="#fff" stroke="#4d4d4d" stroke-linecap="square" stroke-miterlimit="10" stroke-width="1.6"/><path d="M1254.347 945.144c-.101-3.2 1.721-5.661 5.081-5.661 2.561 0 4.801 1.641 4.801 4.381 0 4.241-4.501 4.581-6.541 7.462h6.621v2.44h-10.282c0-3.261 2.001-4.601 4.421-6.262 1.221-.859 2.94-1.7 2.94-3.42 0-1.341-.88-2.161-2.1-2.161-1.681 0-2.221 1.74-2.221 3.221h-2.721Z" fill="#818084"/><circle cx="1259.753" cy="1041.407" r="17.568" fill="#fff" stroke="#4d4d4d" stroke-linecap="square" stroke-miterlimit="10" stroke-width="1.6"/><path d="M1258.167 1040.066c1.221.1 2.981-.14 2.981-1.74 0-1.2-.94-1.86-1.98-1.86-1.44 0-2.181 1.06-2.161 2.5h-2.7c.1-2.88 1.94-4.841 4.841-4.841 2.24 0 4.701 1.381 4.701 3.881 0 1.341-.66 2.48-1.96 2.86v.04c1.54.341 2.48 1.601 2.48 3.181 0 2.941-2.48 4.602-5.201 4.602-3.141 0-5.262-1.881-5.201-5.102h2.7c.061 1.521.82 2.761 2.461 2.761 1.28 0 2.28-.86 2.28-2.2 0-2.121-1.86-2.081-3.241-2.081v-2Z" fill="#818084"/><path fill="#1b2c6a" d="M1287.972 784.631h188.563v40h-188.563z"/><path d="M1301.321 795.615h7.915l2.575 10.61h.051l2.578-10.61h7.905v18.035h-5.254v-11.568h-.049l-3.136 11.568h-4.143l-3.131-11.568h-.051v11.568h-5.261v-18.035ZM1338.706 810.721a5.088 5.088 0 0 0 .606 2.929h-5.103a3.482 3.482 0 0 1-.177-1.236h-.051a5.356 5.356 0 0 1-4.219 1.566c-2.526 0-4.623-1.213-4.623-3.968 0-4.166 4.884-3.964 7.41-4.47.674-.126 1.362-.337 1.362-1.164 0-.882-.842-1.211-1.64-1.211-1.516 0-1.871.783-1.871 1.347h-4.648c.128-3.705 3.663-4.294 6.736-4.294 6.265 0 6.214 2.602 6.214 5.128l.002 5.372Zm-4.8-2.956a9.872 9.872 0 0 1-1.97.63c-1.111.278-1.692.532-1.692 1.416a1.442 1.442 0 0 0 1.566 1.213 1.97 1.97 0 0 0 2.097-2.046v-1.213ZM1340.525 813.904h.842c1.01 0 1.389-.337 1.389-1.617v-11.746h5v12.226c0 2.095-.126 3.358-1.164 4.242a5.856 5.856 0 0 1-3.705.886h-2.363v-3.991Zm7.231-14.778h-5.002v-3.511h5.002v3.511ZM1359.496 805.514a1.724 1.724 0 0 0-.556-1.238 1.862 1.862 0 0 0-1.263-.429c-1.918 0-2.189 1.667-2.189 3.259 0 1.617.278 3.232 2.189 3.232a2.01 2.01 0 0 0 1.947-1.918h4.774a6.38 6.38 0 0 1-6.822 5.557 6.762 6.762 0 0 1-7.098-6.871 6.783 6.783 0 0 1 7.099-6.897c3.461 0 6.341 1.667 6.669 5.305h-4.749ZM1373.522 813.98a6.556 6.556 0 0 1-7.147-6.896 6.55 6.55 0 0 1 7.147-6.871 6.551 6.551 0 0 1 7.149 6.871 6.567 6.567 0 0 1-7.149 6.896Zm0-10.13c-1.92 0-2.147 1.844-2.147 3.233s.227 3.257 2.147 3.257 2.147-1.868 2.147-3.257-.234-3.233-2.147-3.233ZM1396.097 810.721a5.088 5.088 0 0 0 .606 2.929h-5.103a3.478 3.478 0 0 1-.168-1.236h-.059a5.352 5.352 0 0 1-4.21 1.566c-2.526 0-4.623-1.213-4.623-3.968 0-4.166 4.884-3.964 7.41-4.47.674-.126 1.362-.337 1.362-1.164 0-.882-.834-1.211-1.64-1.211-1.516 0-1.871.783-1.871 1.347h-4.663c.128-3.705 3.663-4.294 6.745-4.294 6.265 0 6.214 2.602 6.214 5.128v5.372Zm-4.799-2.956a9.808 9.808 0 0 1-1.97.63c-1.111.278-1.692.532-1.692 1.416a1.442 1.442 0 0 0 1.566 1.213 1.97 1.97 0 0 0 2.097-2.046v-1.213ZM1405.269 800.541h2.678v3.082h-2.678v4.572c0 1.213.254 1.741 1.541 1.741.38 0 .76-.025 1.137-.076v3.789c-1.01 0-2.122.152-3.208.152-2.122 0-4.471-.327-4.471-3.914v-6.265h-2.223v-3.082h2.223v-3.991h5.002v3.991ZM1412.773 794.791a2.758 2.758 0 1 1-2.831 2.75 2.736 2.736 0 0 1 2.831-2.75Zm0 4.926a2.095 2.095 0 0 0 2.081-2.109c0-.022 0-.045-.002-.067a2.082 2.082 0 1 0-4.16-.001 2.089 2.089 0 0 0 2.08 2.176Zm-1.098-3.723h1.164c.775 0 1.211.243 1.211.914a.773.773 0 0 1-.812.824l.827 1.347h-.643l-.751-1.314h-.384v1.32h-.611v-3.094Zm.611 1.29h.546c.354 0 .605-.052.605-.428 0-.325-.354-.384-.633-.384h-.517v.812ZM1435.496 813.65h-11.645c.101-5.254 5.532-6.568 8.513-9.549a4.311 4.311 0 0 0 1.465-3.333 3.64 3.64 0 0 0-3.965-3.612c-2.905 0-4.065 2.324-3.991 4.926h-1.591c-.067-3.641 1.819-6.265 5.658-6.265 3.08 0 5.48 1.684 5.48 4.976 0 2.954-2.122 4.8-4.446 6.29-1.718 1.137-4.899 2.753-5.305 5.101h9.828v1.465ZM1450.097 804.911c0 4.143-1.01 9.119-6.164 9.119s-6.164-4.976-6.164-9.094c0-4.143 1.01-9.119 6.164-9.119s6.164 4.981 6.164 9.094Zm-10.736 0c0 3.082.53 7.78 4.572 7.78s4.572-4.699 4.572-7.78-.53-7.747-4.572-7.747-4.564 4.688-4.564 7.747h-.008ZM1464.9 804.911c0 4.143-1.01 9.119-6.164 9.119s-6.164-4.976-6.164-9.094c0-4.143 1.01-9.119 6.164-9.119s6.164 4.981 6.164 9.094Zm-10.736 0c0 3.082.53 7.78 4.572 7.78s4.572-4.699 4.572-7.78-.53-7.747-4.572-7.747-4.572 4.688-4.572 7.747Z" fill="#fff"/><path fill="#acadaf" d="M1287.972 974.144h188.563v40h-188.563z"/><path d="M1319.027 1003.266h-5.31l-1.91-11.104h-.05l-1.861 11.104h-5.334l-4.813-18.227h5.359l2.158 11.258h.05l2.134-11.258h4.813l2.084 11.41h.05l2.208-11.41h5.384l-4.962 18.227ZM1329.101 997.778c.124 1.531.942 2.578 2.506 2.578.794 0 1.662-.307 2.06-.944h4.59c-.993 2.859-3.722 4.187-6.625 4.187-4.118 0-7.22-2.502-7.22-6.918 0-3.855 2.704-6.995 6.798-6.995 5.111 0 7.319 2.91 7.319 8.093h-9.428Zm4.713-2.63c0-1.225-.894-2.221-2.158-2.221-1.489 0-2.308.791-2.531 2.221h4.689ZM1346.939 990.017h2.63v3.114h-2.63v4.621c0 1.225.248 1.761 1.513 1.761a8.21 8.21 0 0 0 1.117-.076v3.829c-.993 0-2.084.153-3.151.153-2.084 0-4.392-.332-4.392-3.957v-6.331h-2.184v-3.114h2.184v-4.033h4.913v4.033ZM1365.126 1001.556c0 2.654-.67 6.33-6.699 6.33-3.052 0-6.252-.842-6.724-4.416h4.863c.074.128.174.281.272.46.298.484.819.97 1.439.97 1.588 0 1.935-1.94 1.935-3.038v-1.225h-.049c-.794 1.199-1.96 1.838-3.449 1.838-3.796 0-5.508-2.91-5.508-6.459 0-3.446 1.91-6.331 5.582-6.331 1.464 0 2.804.587 3.375 1.94h.049v-1.608h4.913v11.539Zm-6.798-2.323c1.811 0 2.009-1.787 2.009-3.268 0-1.455-.67-2.604-2.133-2.604-1.415 0-2.085 1.226-2.085 2.63 0 1.506.447 3.242 2.209 3.242ZM1381.699 1003.266h-4.738v-1.685h-.05c-.918 1.327-2.208 2.017-4.193 2.017-2.308 0-4.416-1.455-4.416-4.493v-9.088h4.912v6.943c0 1.532.149 2.604 1.613 2.604.868 0 1.96-.435 1.96-2.553v-6.995h4.912v13.249ZM1397.577 1000.305c0 .995.025 2.118.596 2.961h-5.012a3.655 3.655 0 0 1-.174-1.251h-.049c-1.067 1.226-2.556 1.583-4.144 1.583-2.481 0-4.541-1.226-4.541-4.008 0-4.212 4.789-4.008 7.27-4.519.67-.128 1.34-.332 1.34-1.175 0-.894-.818-1.225-1.612-1.225-1.488 0-1.836.791-1.836 1.353h-4.565c.124-3.753 3.598-4.34 6.625-4.34 6.152 0 6.103 2.63 6.103 5.183v5.438Zm-4.714-2.987c-.595.307-1.265.46-1.935.639-1.092.28-1.663.536-1.663 1.43 0 .612.646 1.225 1.539 1.225 1.116 0 1.984-.663 2.059-2.067v-1.226ZM1400.804 990.017h4.714v2.119h.05c.794-1.608 1.836-2.451 3.622-2.451.472 0 .943.077 1.439.204v4.468c-.496-.179-.943-.332-1.936-.332-1.96 0-2.978 1.148-2.978 4.008v5.233h-4.912v-13.249ZM1426.035 1003.266h-4.738v-1.455h-.05c-.596.816-1.39 1.787-3.771 1.787-3.647 0-5.408-3.676-5.408-7.021 0-3.14 1.166-6.893 5.482-6.893 1.489 0 2.754.664 3.523 1.787h.05v-6.433h4.912v18.227Zm-6.897-9.905c-1.761 0-2.158 1.711-2.158 3.268s.397 3.294 2.158 3.294 2.159-1.736 2.159-3.294-.397-3.268-2.159-3.268ZM1431.423 984.204c1.469 0 2.777 1.087 2.777 2.777s-1.309 2.793-2.777 2.793-2.777-1.095-2.777-2.793 1.31-2.777 2.777-2.777Zm0 4.974c1.121 0 2.04-.924 2.04-2.197 0-1.266-.919-2.182-2.04-2.182-1.135 0-2.039.916-2.039 2.182 0 1.273.904 2.197 2.039 2.197Zm-1.077-3.76h1.143c.76 0 1.187.246 1.187.923 0 .574-.354.797-.796.834l.811 1.363h-.63l-.737-1.333h-.376v1.333h-.601v-3.12Zm.6 1.302h.535c.347 0 .593-.052.593-.432 0-.327-.347-.387-.622-.387h-.506v.818Z"/><path fill="#1c355e" d="M1287.972 832.01h188.563v40h-188.563z"/><path d="M1405.53 859.65h-9.313c.081-4.202 4.424-5.253 6.808-7.637.788-.788 1.172-1.535 1.172-2.667 0-1.838-1.454-2.889-3.172-2.889-2.323 0-3.252 1.858-3.191 3.939h-1.273c-.061-2.909 1.455-5.01 4.525-5.01 2.465 0 4.385 1.354 4.385 3.979 0 2.363-1.697 3.839-3.556 5.03-1.374.909-3.92 2.202-4.243 4.081h7.859v1.172ZM1407.836 855.609c.061 1.96 1.535 3.273 3.475 3.273 2.183 0 3.536-1.798 3.536-3.858 0-2.081-1.516-3.678-3.616-3.678-1.273 0-2.445.606-3.152 1.677h-1.091l1.374-7.333h7.071v1.172h-6.183l-.909 4.687.041.041c.707-.828 1.879-1.313 2.989-1.313 2.909 0 4.748 2.04 4.748 4.889 0 2.748-2.202 4.788-4.909 4.788-2.627 0-4.586-1.656-4.646-4.344h1.272ZM1426.729 852.66c0 3.313-.809 7.293-4.93 7.293s-4.93-3.979-4.93-7.272c0-3.313.809-7.293 4.93-7.293s4.93 3.979 4.93 7.272Zm-8.586 0c0 2.465.424 6.223 3.656 6.223s3.657-3.758 3.657-6.223c0-2.444-.425-6.202-3.657-6.202s-3.656 3.758-3.656 6.202ZM1433.358 854.902c-.061 2.971 2.062 3.879 4.708 3.879 1.515 0 3.818-.828 3.818-2.929 0-1.637-1.616-2.283-2.97-2.606l-3.213-.788c-1.697-.424-3.252-1.212-3.252-3.475 0-1.414.908-4.061 4.97-4.061 2.868 0 5.333 1.515 5.333 4.484h-1.374c-.101-2.182-1.878-3.312-3.939-3.312-1.879 0-3.616.727-3.616 2.868 0 1.354.99 1.939 2.183 2.202l3.515.869c2.041.545 3.737 1.454 3.737 3.798 0 .99-.403 4.121-5.515 4.121-3.414 0-5.92-1.535-5.758-5.051h1.373ZM1450.596 844.923c4.525 0 6.788 3.556 6.788 7.516s-2.263 7.515-6.788 7.515-6.809-3.556-6.809-7.515 2.263-7.516 6.809-7.516Zm0 13.858c3.798 0 5.414-3.191 5.414-6.343s-1.616-6.344-5.414-6.344c-3.818 0-5.435 3.191-5.435 6.344s1.616 6.343 5.435 6.343ZM1458.64 845.225h6.102c2.425 0 4.627.849 4.627 3.535 0 1.516-1.011 2.909-2.506 3.232v.041c1.859.242 3.051 1.636 3.051 3.515 0 1.374-.484 4.102-5.172 4.102h-6.102v-14.425Zm1.374 6.324h4.728c2.182 0 3.253-1.091 3.253-2.444 0-1.798-1.091-2.707-3.253-2.707h-4.728v5.151Zm0 6.929h4.728c2.041 0 3.798-.626 3.798-2.97 0-1.858-1.373-2.788-3.798-2.788h-4.728v5.758ZM1297.126 844.78h6.481l2.112 8.696h.041l2.112-8.696h6.48v14.784h-4.307v-9.483h-.041l-2.567 9.483h-3.396l-2.567-9.483h-.041v9.483h-4.308V844.78ZM1327.765 857.162c0 .808.021 1.719.497 2.402h-4.183a2.878 2.878 0 0 1-.146-1.015h-.041c-.891.994-2.133 1.284-3.458 1.284-2.07 0-3.789-.994-3.789-3.251 0-3.417 3.996-3.251 6.066-3.665.56-.104 1.118-.27 1.118-.953 0-.725-.684-.993-1.346-.993-1.242 0-1.532.642-1.532 1.097h-3.81c.104-3.043 3.002-3.52 5.528-3.52 5.135 0 5.094 2.133 5.094 4.203v4.41Zm-3.935-2.422c-.497.248-1.056.372-1.615.518-.911.228-1.387.435-1.387 1.159 0 .497.538.994 1.283.994.932 0 1.657-.538 1.719-1.678v-.993ZM1329.251 859.771h.684c.828 0 1.139-.27 1.139-1.325v-9.628h4.1v10.021c0 1.719-.104 2.754-.952 3.479-.767.663-2.05.725-3.044.725h-1.926v-3.271Zm5.922-12.113h-4.1v-2.878h4.1v2.878ZM1344.799 852.897c-.041-.456-.187-.787-.455-1.015-.27-.229-.601-.353-1.036-.353-1.573 0-1.801 1.367-1.801 2.671 0 1.325.228 2.65 1.801 2.65.891 0 1.512-.725 1.595-1.573h3.913c-.393 2.92-2.691 4.556-5.59 4.556-3.23 0-5.818-2.236-5.818-5.633s2.588-5.652 5.818-5.652c2.836 0 5.197 1.366 5.466 4.349h-3.893ZM1356.287 859.834c-4.038 0-5.86-2.672-5.86-5.653 0-2.961 1.822-5.632 5.86-5.632s5.859 2.671 5.859 5.632c0 2.981-1.821 5.653-5.859 5.653Zm0-8.304c-1.573 0-1.76 1.512-1.76 2.65s.187 2.671 1.76 2.671 1.76-1.532 1.76-2.671-.187-2.65-1.76-2.65ZM1374.794 857.162c0 .808.021 1.719.497 2.402h-4.183a2.878 2.878 0 0 1-.146-1.015h-.041c-.891.994-2.133 1.284-3.458 1.284-2.07 0-3.789-.994-3.789-3.251 0-3.417 3.996-3.251 6.066-3.665.56-.104 1.118-.27 1.118-.953 0-.725-.684-.993-1.346-.993-1.242 0-1.532.642-1.532 1.097h-3.81c.104-3.043 3.002-3.52 5.528-3.52 5.135 0 5.094 2.133 5.094 4.203v4.41Zm-3.935-2.422c-.497.248-1.056.372-1.615.518-.911.228-1.387.435-1.387 1.159 0 .497.538.994 1.283.994.932 0 1.657-.538 1.719-1.678v-.993ZM1382.306 848.818h2.195v2.525h-2.195v3.748c0 .994.207 1.429 1.264 1.429.311 0 .621-.021.932-.062v3.105c-.828 0-1.739.124-2.63.124-1.739 0-3.665-.269-3.665-3.209v-5.136h-1.822v-2.525h1.822v-3.272h4.1v3.272ZM1388.447 844.123c1.224 0 2.314.88 2.314 2.248 0 1.375-1.091 2.261-2.314 2.261s-2.314-.886-2.314-2.261 1.091-2.248 2.314-2.248Zm0 4.026c.934 0 1.699-.747 1.699-1.778 0-1.024-.766-1.766-1.699-1.766-.946 0-1.7.741-1.7 1.766 0 1.031.754 1.778 1.7 1.778Zm-.898-3.044h.952c.633 0 .988.199.988.748 0 .464-.295.645-.662.675l.675 1.103h-.524l-.615-1.078h-.313v1.078h-.5v-2.525Zm.5 1.055h.446c.289 0 .494-.042.494-.35 0-.265-.289-.312-.519-.312h-.422v.662Z" fill="#fff"/><path fill="#011e41" d="M1288.49 879.388h188.563v40H1288.49z"/><path d="M1301.842 890.364h7.909l2.577 10.613h.051l2.577-10.613h7.909v18.042h-5.256v-11.573h-.051l-3.133 11.573h-4.145l-3.133-11.573h-.051v11.573h-5.256v-18.042ZM1339.231 905.474c0 .986.025 2.098.606 2.932h-5.104a3.515 3.515 0 0 1-.177-1.238h-.051c-1.086 1.213-2.603 1.566-4.22 1.566-2.526 0-4.624-1.213-4.624-3.967 0-4.169 4.877-3.967 7.403-4.473.683-.126 1.365-.328 1.365-1.162 0-.885-.834-1.213-1.643-1.213-1.517 0-1.87.783-1.87 1.339h-4.649c.127-3.714 3.664-4.296 6.747-4.296 6.267 0 6.216 2.604 6.216 5.13v5.382Zm-4.8-2.956c-.606.304-1.289.455-1.971.632-1.112.278-1.693.53-1.693 1.415 0 .606.657 1.213 1.566 1.213 1.137 0 2.021-.657 2.098-2.047v-1.213ZM1341.046 908.659h.834c1.011 0 1.39-.329 1.39-1.617v-11.75h5.003v12.229c0 2.098-.126 3.361-1.162 4.245-.936.809-2.502.885-3.715.885h-2.35v-3.992Zm7.226-14.782h-5.003v-3.513h5.003v3.513ZM1360.02 900.269c-.05-.556-.228-.96-.556-1.238-.328-.277-.732-.43-1.264-.43-1.92 0-2.198 1.668-2.198 3.26 0 1.617.278 3.234 2.198 3.234 1.087 0 1.845-.884 1.946-1.92h4.775c-.479 3.562-3.285 5.559-6.822 5.559-3.942 0-7.101-2.729-7.101-6.873s3.158-6.898 7.101-6.898c3.462 0 6.343 1.668 6.671 5.307h-4.751ZM1374.039 908.734c-4.928 0-7.151-3.26-7.151-6.898 0-3.613 2.224-6.873 7.151-6.873s7.15 3.26 7.15 6.873c0 3.639-2.224 6.898-7.15 6.898Zm0-10.133c-1.921 0-2.148 1.845-2.148 3.234s.228 3.26 2.148 3.26 2.147-1.869 2.147-3.26-.228-3.234-2.147-3.234ZM1396.624 905.474c0 .986.025 2.098.606 2.932h-5.104a3.515 3.515 0 0 1-.177-1.238h-.051c-1.086 1.213-2.603 1.566-4.22 1.566-2.526 0-4.624-1.213-4.624-3.967 0-4.169 4.877-3.967 7.403-4.473.683-.126 1.365-.328 1.365-1.162 0-.885-.834-1.213-1.643-1.213-1.517 0-1.87.783-1.87 1.339h-4.649c.127-3.714 3.664-4.296 6.747-4.296 6.267 0 6.216 2.604 6.216 5.13v5.382Zm-4.801-2.956c-.606.304-1.289.455-1.971.632-1.112.278-1.693.53-1.693 1.415 0 .606.657 1.213 1.566 1.213 1.137 0 2.021-.657 2.098-2.047v-1.213ZM1405.792 895.292h2.678v3.083h-2.678v4.573c0 1.213.252 1.743 1.541 1.743.379 0 .758-.025 1.137-.075v3.79c-1.011 0-2.122.151-3.209.151-2.122 0-4.473-.328-4.473-3.916v-6.267h-2.224v-3.083h2.224v-3.992h5.004v3.992ZM1413.292 889.55c1.496 0 2.83 1.076 2.83 2.749s-1.334 2.764-2.83 2.764-2.83-1.083-2.83-2.764 1.334-2.749 2.83-2.749Zm0 4.923c1.143 0 2.078-.914 2.078-2.175 0-1.253-.936-2.159-2.078-2.159-1.157 0-2.078.906-2.078 2.159 0 1.261.921 2.175 2.078 2.175Zm-1.099-3.722h1.165c.773 0 1.208.243 1.208.914 0 .567-.36.789-.811.825l.825 1.35h-.641l-.752-1.319h-.383v1.319h-.612v-3.089Zm.613 1.29h.545c.354 0 .604-.052.604-.428 0-.324-.354-.383-.634-.383h-.516v.811ZM1425.889 902.771c-.126 2.805 1.592 4.675 4.422 4.675 2.325 0 4.523-1.39 4.523-3.917s-1.896-3.739-4.245-3.739h-1.34v-1.34h1.34c1.643 0 3.588-.96 3.588-3.209 0-2.324-1.743-3.335-3.866-3.335-2.628 0-4.094 1.844-4.018 4.473h-1.592c0-3.336 2.147-5.812 5.584-5.812 2.755 0 5.483 1.365 5.483 4.498 0 1.92-1.062 3.437-2.981 3.917v.05c2.324.379 3.639 2.047 3.639 4.372 0 3.462-2.83 5.382-6.09 5.382-3.639 0-6.317-2.224-6.039-6.014h1.592ZM1440.263 903.352c.075 2.451 1.92 4.094 4.346 4.094 2.729 0 4.422-2.249 4.422-4.826 0-2.603-1.895-4.6-4.522-4.6-1.593 0-3.058.759-3.942 2.098h-1.364l1.718-9.173h8.845v1.466h-7.732l-1.138 5.862.051.051c.885-1.036 2.351-1.643 3.74-1.643 3.639 0 5.938 2.552 5.938 6.115 0 3.437-2.754 5.988-6.14 5.988-3.285 0-5.736-2.072-5.812-5.433h1.592ZM1465.173 899.663c0 4.145-1.011 9.122-6.166 9.122s-6.165-4.978-6.165-9.097c0-4.144 1.011-9.122 6.165-9.122s6.166 4.979 6.166 9.097Zm-10.739 0c0 3.083.53 7.783 4.573 7.783s4.574-4.7 4.574-7.783c0-3.058-.531-7.757-4.574-7.757s-4.573 4.699-4.573 7.757Z" fill="#fff"/><path d="M1299.287 938.124h7.202l2.347 9.665h.046l2.347-9.665h7.203v16.43h-4.787v-10.539h-.046l-2.853 10.539h-3.774l-2.853-10.539h-.047v10.539h-4.785v-16.43ZM1333.337 951.885c0 .897.023 1.909.552 2.669h-4.647a3.167 3.167 0 0 1-.161-1.128h-.046c-.989 1.104-2.37 1.427-3.843 1.427-2.301 0-4.211-1.104-4.211-3.612 0-3.797 4.441-3.612 6.742-4.073.621-.114 1.242-.299 1.242-1.058 0-.806-.759-1.104-1.495-1.104-1.381 0-1.703.713-1.703 1.219h-4.234c.115-3.382 3.337-3.911 6.145-3.911 5.706 0 5.66 2.37 5.66 4.671v4.901Zm-4.372-2.693c-.552.276-1.174.414-1.795.575-1.012.253-1.541.483-1.541 1.288 0 .553.598 1.105 1.426 1.105 1.036 0 1.841-.599 1.91-1.864v-1.104ZM1334.991 954.784h.76c.92 0 1.266-.3 1.266-1.473v-10.7h4.556v11.137c0 1.91-.115 3.061-1.059 3.866-.852.736-2.278.805-3.383.805h-2.14v-3.635Zm6.581-13.461h-4.556v-3.199h4.556v3.199ZM1344.631 942.611h4.396v1.312h.046c.552-.736 1.288-1.61 3.497-1.61 3.383 0 5.017 3.313 5.017 6.327 0 2.831-1.081 6.213-5.085 6.213-1.381 0-2.555-.598-3.268-1.61h-.046v5.177h-4.557v-15.808Zm6.397 8.928c1.634 0 2.002-1.541 2.002-2.945s-.368-2.968-2.002-2.968-2.002 1.564-2.002 2.968.368 2.945 2.002 2.945ZM1363.818 949.606c.115 1.381.875 2.324 2.324 2.324.736 0 1.542-.276 1.91-.852h4.257c-.921 2.577-3.452 3.773-6.144 3.773-3.82 0-6.696-2.255-6.696-6.235 0-3.475 2.508-6.305 6.305-6.305 4.74 0 6.788 2.623 6.788 7.294h-8.744Zm4.372-2.37c0-1.104-.828-2.002-2.002-2.002-1.38 0-2.14.714-2.347 2.002h4.349ZM1375.021 938.124h4.556v16.43h-4.556v-16.43ZM1382.683 938.124h4.556v16.43h-4.556v-16.43ZM1392.262 937.38c1.363 0 2.578.98 2.578 2.505s-1.215 2.518-2.578 2.518-2.578-.987-2.578-2.518 1.215-2.505 2.578-2.505Zm0 4.485c1.041 0 1.894-.833 1.894-1.98 0-1.142-.853-1.968-1.894-1.968-1.054 0-1.894.826-1.894 1.968 0 1.147.84 1.98 1.894 1.98Zm-1-3.391h1.061c.705 0 1.101.222 1.101.833 0 .517-.329.718-.738.752l.752 1.229h-.584l-.685-1.202h-.35v1.202h-.557v-2.813Zm.556 1.175h.497c.322 0 .551-.047.551-.39 0-.295-.322-.349-.577-.349h-.471v.738Z" fill="#e30613"/><path fill="none" stroke="#e30613" stroke-width=".5" d="M1287.972 926.766h188.563v40h-188.563z"/><path d="M1402.444 950.049c-.101 2.242 1.272 3.737 3.535 3.737 1.859 0 3.616-1.111 3.616-3.132s-1.515-2.989-3.394-2.989h-1.071v-1.071h1.071c1.313 0 2.868-.768 2.868-2.565 0-1.858-1.394-2.667-3.091-2.667-2.101 0-3.272 1.475-3.212 3.576h-1.272c0-2.667 1.717-4.646 4.465-4.646 2.202 0 4.384 1.091 4.384 3.596 0 1.535-.849 2.747-2.384 3.132v.04c1.858.303 2.909 1.637 2.909 3.495 0 2.768-2.263 4.303-4.869 4.303-2.909 0-5.051-1.777-4.828-4.808h1.272ZM1412.73 950.512c.061 1.96 1.535 3.273 3.475 3.273 2.183 0 3.536-1.798 3.536-3.858 0-2.081-1.516-3.678-3.616-3.678-1.273 0-2.445.606-3.152 1.677h-1.091l1.374-7.333h7.071v1.172h-6.183l-.909 4.687.041.041c.707-.828 1.879-1.313 2.989-1.313 2.909 0 4.748 2.04 4.748 4.889 0 2.748-2.202 4.788-4.909 4.788-2.626 0-4.586-1.656-4.646-4.344h1.272ZM1427.664 949.805c-.061 2.971 2.062 3.879 4.708 3.879 1.515 0 3.818-.828 3.818-2.929 0-1.637-1.616-2.283-2.97-2.606l-3.213-.788c-1.697-.424-3.252-1.212-3.252-3.475 0-1.414.908-4.061 4.97-4.061 2.868 0 5.333 1.515 5.333 4.484h-1.374c-.101-2.182-1.878-3.312-3.939-3.312-1.879 0-3.616.727-3.616 2.868 0 1.354.99 1.939 2.183 2.202l3.515.869c2.041.545 3.737 1.454 3.737 3.798 0 .99-.403 4.121-5.515 4.121-3.414 0-5.92-1.535-5.758-5.051h1.373ZM1444.779 939.826c4.525 0 6.788 3.556 6.788 7.516s-2.263 7.515-6.788 7.515-6.809-3.556-6.809-7.515 2.263-7.516 6.809-7.516Zm0 13.858c3.798 0 5.414-3.191 5.414-6.343s-1.616-6.344-5.414-6.344c-3.818 0-5.435 3.191-5.435 6.344s1.616 6.343 5.435 6.343ZM1452.703 940.129h6.101c2.425 0 4.627.849 4.627 3.535 0 1.516-1.011 2.909-2.506 3.232v.041c1.859.242 3.051 1.636 3.051 3.515 0 1.374-.484 4.102-5.172 4.102h-6.101v-14.425Zm1.373 6.323h4.728c2.182 0 3.253-1.091 3.253-2.444 0-1.798-1.091-2.707-3.253-2.707h-4.728v5.151Zm0 6.93h4.728c2.041 0 3.798-.626 3.798-2.97 0-1.858-1.373-2.788-3.798-2.788h-4.728v5.758Z" fill="#e30613"/></svg>